# MagicaVoxel @ Ephtracy

# group
o 

# material
mtllib blueGhost.mtl
usemtl palette

# normals
vn -1 0 0
vn 1 0 0
vn 0 0 1
vn 0 0 -1
vn 0 -1 0
vn 0 1 0

# texcoords
vt 0.837891 0.5
vt 0.955078 0.5

# verts
v -0.6 0.9 0.1
v -0.6 0.9 -0.1
v -0.6 1.9 0.1
v -0.6 1.9 -0.1
v -0.5 1.8 -0.1
v -0.5 1.8 -0.2
v -0.5 1.9 0.1
v -0.5 1.9 -0.1
v -0.5 2 0.1
v -0.5 2 -0.1
v -0.5 2.1 0
v -0.5 2.1 -0.2
v -0.5 2.3 -0.1
v -0.5 2.3 -0.2
v -0.5 2.4 0.1
v -0.5 2.4 0
v -0.5 2.7 -0.1
v -0.5 2.7 -0.2
v -0.4 1.7 -0.1
v -0.4 1.7 -0.2
v -0.4 1.8 -0.1
v -0.4 1.8 -0.2
v -0.4 1.8 -0.3
v -0.4 1.9 0.2
v -0.4 1.9 0.1
v -0.4 2 0.1
v -0.4 2.1 0
v -0.4 2.1 -0.2
v -0.4 2.3 -0.1
v -0.4 2.3 -0.2
v -0.4 2.4 0.1
v -0.4 2.4 0
v -0.4 2.7 0.2
v -0.4 2.7 -0.1
v -0.4 2.7 -0.2
v -0.4 2.7 -0.3
v -0.3 0 0.2
v -0.3 0 -0.1
v -0.3 0.1 0.2
v -0.3 0.1 0.1
v -0.3 1.5 -0.1
v -0.3 1.5 -0.2
v -0.3 1.7 0.2
v -0.3 1.7 0.1
v -0.3 1.7 -0.1
v -0.3 1.7 -0.2
v -0.3 1.8 0.1
v -0.3 1.8 -0.1
v -0.3 1.9 0.3
v -0.3 1.9 0.2
v -0.3 1.9 0.1
v -0.3 2.2 -0.3
v -0.3 2.2 -0.4
v -0.3 2.5 -0.3
v -0.3 2.5 -0.4
v -0.3 2.7 0.3
v -0.3 2.7 0.2
v -0.3 2.7 -0.2
v -0.3 2.8 0.2
v -0.3 2.8 -0.2
v -0.2 1.6 0.2
v -0.2 1.6 0.1
v -0.2 1.7 0.2
v -0.2 1.7 0.1
v -0.2 1.7 -0.2
v -0.2 1.7 -0.3
v -0.2 1.9 -0.2
v -0.2 1.9 -0.3
v -0.2 2 -0.3
v -0.2 2 -0.4
v -0.2 2.2 0.4
v -0.2 2.2 0.3
v -0.2 2.2 -0.3
v -0.2 2.2 -0.4
v -0.2 2.5 0.4
v -0.2 2.5 0.3
v -0.2 2.8 0.1
v -0.2 2.8 -0.1
v -0.2 2.9 0.1
v -0.2 2.9 -0.1
v -0.0999999 1.7 -0.1
v -0.0999999 1.7 -0.2
v -0.0999999 1.8 -0.1
v -0.0999999 1.8 -0.2
v -0.0999999 2 0.4
v -0.0999999 2 0.3
v -0.0999999 2.2 0.4
v -0.0999999 2.2 0.3
v 0.1 0 0.2
v 0.1 0 -0.1
v 0.1 0.1 0.2
v 0.1 0.1 0.1
v 0.1 1 0.1
v 0.1 1 -0.1
v 0.1 1.6 0.2
v 0.1 1.6 0.1
v 0.1 1.7 -0.2
v 0.1 1.7 -0.3
v 0.1 1.8 0.2
v 0.1 1.8 0.1
v 0.1 1.9 -0.2
v 0.1 1.9 -0.3
v 0.1 2.1 -0.3
v 0.1 2.1 -0.4
v 0.1 2.3 0.4
v 0.1 2.3 0.3
v 0.1 2.5 0.4
v 0.1 2.5 0.3
v 0.1 2.5 -0.3
v 0.1 2.5 -0.4
v 0.2 1.5 -0.1
v 0.2 1.5 -0.2
v 0.2 1.7 -0.2
v 0.2 1.8 -0.1
v 0.2 1.8 -0.2
v 0.3 1.8 -0.2
v 0.3 1.8 -0.3
v 0.3 1.9 -0.2
v 0.3 1.9 -0.3
v 0.4 1 0.1
v 0.4 1 -0.1
v 0.4 1.7 -0.1
v 0.4 1.8 0.1
v 0.4 1.8 -0.1
v 0.5 0.9 0.1
v 0.5 0.9 -0.1
v 0.5 1 0.1
v 0.5 1 -0.1
v -0.5 0.9 0.1
v -0.5 0.9 -0.1
v -0.5 1 0.1
v -0.5 1 -0.1
v -0.4 1 0.1
v -0.4 1 -0.1
v -0.4 1.7 -0.1
v -0.4 1.8 0.1
v -0.4 1.8 -0.1
v -0.3 1.8 -0.2
v -0.3 1.8 -0.3
v -0.3 1.9 -0.2
v -0.3 1.9 -0.3
v -0.2 1.5 -0.1
v -0.2 1.5 -0.2
v -0.2 1.7 -0.2
v -0.2 1.8 -0.1
v -0.2 1.8 -0.2
v -0.0999999 0 0.2
v -0.0999999 0 -0.1
v -0.0999999 0.1 0.2
v -0.0999999 0.1 0.1
v -0.0999999 1 0.1
v -0.0999999 1 -0.1
v -0.0999999 1.6 0.2
v -0.0999999 1.6 0.1
v -0.0999999 1.7 -0.2
v -0.0999999 1.7 -0.3
v -0.0999999 1.8 0.2
v -0.0999999 1.8 0.1
v -0.0999999 1.9 -0.2
v -0.0999999 1.9 -0.3
v -0.0999999 2.1 -0.3
v -0.0999999 2.1 -0.4
v -0.0999999 2.3 0.4
v -0.0999999 2.3 0.3
v -0.0999999 2.5 0.4
v -0.0999999 2.5 0.3
v -0.0999999 2.5 -0.3
v -0.0999999 2.5 -0.4
v 0.1 1.7 -0.1
v 0.1 1.7 -0.2
v 0.1 1.8 -0.1
v 0.1 1.8 -0.2
v 0.1 2 0.4
v 0.1 2 0.3
v 0.1 2.2 0.4
v 0.1 2.2 0.3
v 0.2 1.6 0.2
v 0.2 1.6 0.1
v 0.2 1.7 0.2
v 0.2 1.7 0.1
v 0.2 1.7 -0.2
v 0.2 1.7 -0.3
v 0.2 1.9 -0.2
v 0.2 1.9 -0.3
v 0.2 2 -0.3
v 0.2 2 -0.4
v 0.2 2.2 0.4
v 0.2 2.2 0.3
v 0.2 2.2 -0.3
v 0.2 2.2 -0.4
v 0.2 2.5 0.4
v 0.2 2.5 0.3
v 0.2 2.8 0.1
v 0.2 2.8 -0.1
v 0.2 2.9 0.1
v 0.2 2.9 -0.1
v 0.3 0 0.2
v 0.3 0 -0.1
v 0.3 0.1 0.2
v 0.3 0.1 0.1
v 0.3 1.5 -0.1
v 0.3 1.5 -0.2
v 0.3 1.7 0.2
v 0.3 1.7 0.1
v 0.3 1.7 -0.1
v 0.3 1.7 -0.2
v 0.3 1.8 0.1
v 0.3 1.8 -0.1
v 0.3 1.9 0.3
v 0.3 1.9 0.2
v 0.3 1.9 0.1
v 0.3 2.2 -0.3
v 0.3 2.2 -0.4
v 0.3 2.5 -0.3
v 0.3 2.5 -0.4
v 0.3 2.7 0.3
v 0.3 2.7 0.2
v 0.3 2.7 -0.2
v 0.3 2.8 0.2
v 0.3 2.8 -0.2
v 0.4 1.7 -0.1
v 0.4 1.7 -0.2
v 0.4 1.8 -0.1
v 0.4 1.8 -0.2
v 0.4 1.8 -0.3
v 0.4 1.9 0.2
v 0.4 1.9 0.1
v 0.4 2 0.1
v 0.4 2.1 0
v 0.4 2.1 -0.2
v 0.4 2.3 -0.1
v 0.4 2.3 -0.2
v 0.4 2.4 0.1
v 0.4 2.4 0
v 0.4 2.7 0.2
v 0.4 2.7 -0.1
v 0.4 2.7 -0.2
v 0.4 2.7 -0.3
v 0.5 1.8 -0.1
v 0.5 1.8 -0.2
v 0.5 1.9 0.1
v 0.5 1.9 -0.1
v 0.5 2 0.1
v 0.5 2 -0.1
v 0.5 2.1 0
v 0.5 2.1 -0.2
v 0.5 2.3 -0.1
v 0.5 2.3 -0.2
v 0.5 2.4 0.1
v 0.5 2.4 0
v 0.5 2.7 -0.1
v 0.5 2.7 -0.2
v 0.6 0.9 0.1
v 0.6 0.9 -0.1
v 0.6 1.9 0.1
v 0.6 1.9 -0.1
v -0.2 2.2 0.4
v -0.2 2.5 0.4
v -0.0999999 2 0.4
v -0.0999999 2.2 0.4
v -0.0999999 2.3 0.4
v -0.0999999 2.5 0.4
v 0.1 2 0.4
v 0.1 2.2 0.4
v 0.1 2.3 0.4
v 0.1 2.5 0.4
v 0.2 2.2 0.4
v 0.2 2.5 0.4
v -0.3 1.9 0.3
v -0.3 2.7 0.3
v -0.2 2.2 0.3
v -0.2 2.5 0.3
v -0.0999999 2 0.3
v -0.0999999 2.2 0.3
v -0.0999999 2.3 0.3
v -0.0999999 2.5 0.3
v 0.1 2 0.3
v 0.1 2.2 0.3
v 0.1 2.3 0.3
v 0.1 2.5 0.3
v 0.2 2.2 0.3
v 0.2 2.5 0.3
v 0.3 1.9 0.3
v 0.3 2.7 0.3
v -0.4 1.9 0.2
v -0.4 2.7 0.2
v -0.3 0 0.2
v -0.3 0.1 0.2
v -0.3 1.7 0.2
v -0.3 1.9 0.2
v -0.3 2.7 0.2
v -0.3 2.8 0.2
v -0.2 1.6 0.2
v -0.2 1.7 0.2
v -0.0999999 0 0.2
v -0.0999999 0.1 0.2
v -0.0999999 1.6 0.2
v -0.0999999 1.8 0.2
v 0.1 0 0.2
v 0.1 0.1 0.2
v 0.1 1.6 0.2
v 0.1 1.8 0.2
v 0.2 1.6 0.2
v 0.2 1.7 0.2
v 0.3 0 0.2
v 0.3 0.1 0.2
v 0.3 1.7 0.2
v 0.3 1.9 0.2
v 0.3 2.7 0.2
v 0.3 2.8 0.2
v 0.4 1.9 0.2
v 0.4 2.7 0.2
v -0.6 0.9 0.1
v -0.6 1.9 0.1
v -0.5 0.9 0.1
v -0.5 1 0.1
v -0.5 1.9 0.1
v -0.5 2 0.1
v -0.5 2.4 0.1
v -0.4 1 0.1
v -0.4 1.8 0.1
v -0.4 1.9 0.1
v -0.4 2 0.1
v -0.4 2.4 0.1
v -0.3 0.1 0.1
v -0.3 1.7 0.1
v -0.3 1.8 0.1
v -0.3 1.9 0.1
v -0.2 1.6 0.1
v -0.2 1.7 0.1
v -0.2 2.8 0.1
v -0.2 2.9 0.1
v -0.0999999 0.1 0.1
v -0.0999999 1 0.1
v -0.0999999 1.6 0.1
v -0.0999999 1.8 0.1
v 0.1 0.1 0.1
v 0.1 1 0.1
v 0.1 1.6 0.1
v 0.1 1.8 0.1
v 0.2 1.6 0.1
v 0.2 1.7 0.1
v 0.2 2.8 0.1
v 0.2 2.9 0.1
v 0.3 0.1 0.1
v 0.3 1.7 0.1
v 0.3 1.8 0.1
v 0.3 1.9 0.1
v 0.4 1 0.1
v 0.4 1.8 0.1
v 0.4 1.9 0.1
v 0.4 2 0.1
v 0.4 2.4 0.1
v 0.5 0.9 0.1
v 0.5 1 0.1
v 0.5 1.9 0.1
v 0.5 2 0.1
v 0.5 2.4 0.1
v 0.6 0.9 0.1
v 0.6 1.9 0.1
v -0.5 2.3 -0.1
v -0.5 2.7 -0.1
v -0.4 1.7 -0.1
v -0.4 1.8 -0.1
v -0.4 2.3 -0.1
v -0.4 2.7 -0.1
v -0.3 1.7 -0.1
v -0.3 1.8 -0.1
v 0.3 1.7 -0.1
v 0.3 1.8 -0.1
v 0.4 1.7 -0.1
v 0.4 1.8 -0.1
v 0.4 2.3 -0.1
v 0.4 2.7 -0.1
v 0.5 2.3 -0.1
v 0.5 2.7 -0.1
v -0.2 1.7 -0.2
v -0.2 1.8 -0.2
v -0.0999999 1.7 -0.2
v -0.0999999 1.8 -0.2
v 0.1 1.7 -0.2
v 0.1 1.8 -0.2
v 0.2 1.7 -0.2
v 0.2 1.8 -0.2
v -0.5 2.1 0
v -0.5 2.4 0
v -0.4 2.1 0
v -0.4 2.4 0
v 0.4 2.1 0
v 0.4 2.4 0
v 0.5 2.1 0
v 0.5 2.4 0
v -0.6 0.9 -0.1
v -0.6 1.9 -0.1
v -0.5 0.9 -0.1
v -0.5 1 -0.1
v -0.5 1.8 -0.1
v -0.5 1.9 -0.1
v -0.4 1 -0.1
v -0.4 1.7 -0.1
v -0.4 1.8 -0.1
v -0.3 0 -0.1
v -0.3 1.5 -0.1
v -0.2 1.5 -0.1
v -0.2 1.8 -0.1
v -0.2 2.8 -0.1
v -0.2 2.9 -0.1
v -0.0999999 0 -0.1
v -0.0999999 1 -0.1
v -0.0999999 1.7 -0.1
v -0.0999999 1.8 -0.1
v 0.1 0 -0.1
v 0.1 1 -0.1
v 0.1 1.7 -0.1
v 0.1 1.8 -0.1
v 0.2 1.5 -0.1
v 0.2 1.8 -0.1
v 0.2 2.8 -0.1
v 0.2 2.9 -0.1
v 0.3 0 -0.1
v 0.3 1.5 -0.1
v 0.4 1 -0.1
v 0.4 1.7 -0.1
v 0.4 1.8 -0.1
v 0.5 0.9 -0.1
v 0.5 1 -0.1
v 0.5 1.8 -0.1
v 0.5 1.9 -0.1
v 0.6 0.9 -0.1
v 0.6 1.9 -0.1
v -0.5 1.8 -0.2
v -0.5 2.1 -0.2
v -0.5 2.3 -0.2
v -0.5 2.7 -0.2
v -0.4 1.7 -0.2
v -0.4 1.8 -0.2
v -0.4 2.1 -0.2
v -0.4 2.3 -0.2
v -0.4 2.7 -0.2
v -0.3 1.5 -0.2
v -0.3 1.7 -0.2
v -0.3 1.8 -0.2
v -0.3 1.9 -0.2
v -0.3 2.7 -0.2
v -0.3 2.8 -0.2
v -0.2 1.5 -0.2
v -0.2 1.7 -0.2
v -0.2 1.9 -0.2
v -0.0999999 1.7 -0.2
v -0.0999999 1.9 -0.2
v 0.1 1.7 -0.2
v 0.1 1.9 -0.2
v 0.2 1.5 -0.2
v 0.2 1.7 -0.2
v 0.2 1.9 -0.2
v 0.3 1.5 -0.2
v 0.3 1.7 -0.2
v 0.3 1.8 -0.2
v 0.3 1.9 -0.2
v 0.3 2.7 -0.2
v 0.3 2.8 -0.2
v 0.4 1.7 -0.2
v 0.4 1.8 -0.2
v 0.4 2.1 -0.2
v 0.4 2.3 -0.2
v 0.4 2.7 -0.2
v 0.5 1.8 -0.2
v 0.5 2.1 -0.2
v 0.5 2.3 -0.2
v 0.5 2.7 -0.2
v -0.4 1.8 -0.3
v -0.4 2.7 -0.3
v -0.3 1.8 -0.3
v -0.3 1.9 -0.3
v -0.3 2.2 -0.3
v -0.3 2.5 -0.3
v -0.2 1.7 -0.3
v -0.2 1.9 -0.3
v -0.2 2 -0.3
v -0.2 2.2 -0.3
v -0.0999999 1.7 -0.3
v -0.0999999 1.9 -0.3
v -0.0999999 2.1 -0.3
v -0.0999999 2.5 -0.3
v 0.1 1.7 -0.3
v 0.1 1.9 -0.3
v 0.1 2.1 -0.3
v 0.1 2.5 -0.3
v 0.2 1.7 -0.3
v 0.2 1.9 -0.3
v 0.2 2 -0.3
v 0.2 2.2 -0.3
v 0.3 1.8 -0.3
v 0.3 1.9 -0.3
v 0.3 2.2 -0.3
v 0.3 2.5 -0.3
v 0.4 1.8 -0.3
v 0.4 2.7 -0.3
v -0.3 2.2 -0.4
v -0.3 2.5 -0.4
v -0.2 2 -0.4
v -0.2 2.2 -0.4
v -0.0999999 2.1 -0.4
v -0.0999999 2.5 -0.4
v 0.1 2.1 -0.4
v 0.1 2.5 -0.4
v 0.2 2 -0.4
v 0.2 2.2 -0.4
v 0.3 2.2 -0.4
v 0.3 2.5 -0.4
v -0.3 0 0.2
v -0.0999999 0 0.2
v 0.1 0 0.2
v 0.3 0 0.2
v -0.3 0 -0.1
v -0.0999999 0 -0.1
v 0.1 0 -0.1
v 0.3 0 -0.1
v -0.6 0.9 0.1
v -0.5 0.9 0.1
v 0.5 0.9 0.1
v 0.6 0.9 0.1
v -0.6 0.9 -0.1
v -0.5 0.9 -0.1
v 0.5 0.9 -0.1
v 0.6 0.9 -0.1
v -0.5 1 0.1
v -0.4 1 0.1
v -0.0999999 1 0.1
v 0.1 1 0.1
v 0.4 1 0.1
v 0.5 1 0.1
v -0.5 1 -0.1
v -0.4 1 -0.1
v -0.0999999 1 -0.1
v 0.1 1 -0.1
v 0.4 1 -0.1
v 0.5 1 -0.1
v -0.3 1.5 -0.1
v -0.2 1.5 -0.1
v 0.2 1.5 -0.1
v 0.3 1.5 -0.1
v -0.3 1.5 -0.2
v -0.2 1.5 -0.2
v 0.2 1.5 -0.2
v 0.3 1.5 -0.2
v -0.2 1.6 0.2
v -0.0999999 1.6 0.2
v 0.1 1.6 0.2
v 0.2 1.6 0.2
v -0.2 1.6 0.1
v -0.0999999 1.6 0.1
v 0.1 1.6 0.1
v 0.2 1.6 0.1
v -0.3 1.7 0.2
v -0.2 1.7 0.2
v 0.2 1.7 0.2
v 0.3 1.7 0.2
v -0.3 1.7 0.1
v -0.2 1.7 0.1
v 0.2 1.7 0.1
v 0.3 1.7 0.1
v -0.4 1.7 -0.1
v -0.3 1.7 -0.1
v -0.0999999 1.7 -0.1
v 0.1 1.7 -0.1
v 0.3 1.7 -0.1
v 0.4 1.7 -0.1
v -0.4 1.7 -0.2
v -0.3 1.7 -0.2
v -0.2 1.7 -0.2
v -0.0999999 1.7 -0.2
v 0.1 1.7 -0.2
v 0.2 1.7 -0.2
v 0.3 1.7 -0.2
v 0.4 1.7 -0.2
v -0.2 1.7 -0.3
v -0.0999999 1.7 -0.3
v 0.1 1.7 -0.3
v 0.2 1.7 -0.3
v -0.0999999 1.8 0.2
v 0.1 1.8 0.2
v -0.4 1.8 0.1
v -0.3 1.8 0.1
v -0.0999999 1.8 0.1
v 0.1 1.8 0.1
v 0.3 1.8 0.1
v 0.4 1.8 0.1
v -0.5 1.8 -0.1
v -0.4 1.8 -0.1
v -0.3 1.8 -0.1
v -0.2 1.8 -0.1
v -0.0999999 1.8 -0.1
v 0.1 1.8 -0.1
v 0.2 1.8 -0.1
v 0.3 1.8 -0.1
v 0.4 1.8 -0.1
v 0.5 1.8 -0.1
v -0.5 1.8 -0.2
v -0.4 1.8 -0.2
v -0.3 1.8 -0.2
v -0.2 1.8 -0.2
v -0.0999999 1.8 -0.2
v 0.1 1.8 -0.2
v 0.2 1.8 -0.2
v 0.3 1.8 -0.2
v 0.4 1.8 -0.2
v 0.5 1.8 -0.2
v -0.4 1.8 -0.3
v -0.3 1.8 -0.3
v 0.3 1.8 -0.3
v 0.4 1.8 -0.3
v -0.3 1.9 0.3
v 0.3 1.9 0.3
v -0.4 1.9 0.2
v -0.3 1.9 0.2
v 0.3 1.9 0.2
v 0.4 1.9 0.2
v -0.4 1.9 0.1
v -0.3 1.9 0.1
v 0.3 1.9 0.1
v 0.4 1.9 0.1
v -0.3 1.9 -0.2
v -0.2 1.9 -0.2
v -0.0999999 1.9 -0.2
v 0.1 1.9 -0.2
v 0.2 1.9 -0.2
v 0.3 1.9 -0.2
v -0.3 1.9 -0.3
v -0.2 1.9 -0.3
v -0.0999999 1.9 -0.3
v 0.1 1.9 -0.3
v 0.2 1.9 -0.3
v 0.3 1.9 -0.3
v -0.0999999 2 0.4
v 0.1 2 0.4
v -0.0999999 2 0.3
v 0.1 2 0.3
v -0.2 2 -0.3
v 0.2 2 -0.3
v -0.2 2 -0.4
v 0.2 2 -0.4
v -0.2 2.2 0.4
v -0.0999999 2.2 0.4
v 0.1 2.2 0.4
v 0.2 2.2 0.4
v -0.2 2.2 0.3
v -0.0999999 2.2 0.3
v 0.1 2.2 0.3
v 0.2 2.2 0.3
v -0.3 2.2 -0.3
v -0.2 2.2 -0.3
v 0.2 2.2 -0.3
v 0.3 2.2 -0.3
v -0.3 2.2 -0.4
v -0.2 2.2 -0.4
v 0.2 2.2 -0.4
v 0.3 2.2 -0.4
v -0.5 2.3 -0.1
v -0.4 2.3 -0.1
v 0.4 2.3 -0.1
v 0.5 2.3 -0.1
v -0.5 2.3 -0.2
v -0.4 2.3 -0.2
v 0.4 2.3 -0.2
v 0.5 2.3 -0.2
v -0.3 0.1 0.2
v -0.0999999 0.1 0.2
v 0.1 0.1 0.2
v 0.3 0.1 0.2
v -0.3 0.1 0.1
v -0.0999999 0.1 0.1
v 0.1 0.1 0.1
v 0.3 0.1 0.1
v -0.6 1.9 0.1
v -0.5 1.9 0.1
v 0.5 1.9 0.1
v 0.6 1.9 0.1
v -0.6 1.9 -0.1
v -0.5 1.9 -0.1
v 0.5 1.9 -0.1
v 0.6 1.9 -0.1
v -0.5 2.1 0
v -0.4 2.1 0
v 0.4 2.1 0
v 0.5 2.1 0
v -0.5 2.1 -0.2
v -0.4 2.1 -0.2
v 0.4 2.1 -0.2
v 0.5 2.1 -0.2
v -0.0999999 2.1 -0.3
v 0.1 2.1 -0.3
v -0.0999999 2.1 -0.4
v 0.1 2.1 -0.4
v -0.0999999 2.3 0.4
v 0.1 2.3 0.4
v -0.0999999 2.3 0.3
v 0.1 2.3 0.3
v -0.5 2.4 0.1
v -0.4 2.4 0.1
v 0.4 2.4 0.1
v 0.5 2.4 0.1
v -0.5 2.4 0
v -0.4 2.4 0
v 0.4 2.4 0
v 0.5 2.4 0
v -0.2 2.5 0.4
v -0.0999999 2.5 0.4
v 0.1 2.5 0.4
v 0.2 2.5 0.4
v -0.2 2.5 0.3
v -0.0999999 2.5 0.3
v 0.1 2.5 0.3
v 0.2 2.5 0.3
v -0.3 2.5 -0.3
v -0.0999999 2.5 -0.3
v 0.1 2.5 -0.3
v 0.3 2.5 -0.3
v -0.3 2.5 -0.4
v -0.0999999 2.5 -0.4
v 0.1 2.5 -0.4
v 0.3 2.5 -0.4
v -0.3 2.7 0.3
v 0.3 2.7 0.3
v -0.4 2.7 0.2
v -0.3 2.7 0.2
v 0.3 2.7 0.2
v 0.4 2.7 0.2
v -0.5 2.7 -0.1
v -0.4 2.7 -0.1
v 0.4 2.7 -0.1
v 0.5 2.7 -0.1
v -0.5 2.7 -0.2
v -0.4 2.7 -0.2
v -0.3 2.7 -0.2
v 0.3 2.7 -0.2
v 0.4 2.7 -0.2
v 0.5 2.7 -0.2
v -0.4 2.7 -0.3
v 0.4 2.7 -0.3
v -0.3 2.8 0.2
v 0.3 2.8 0.2
v -0.2 2.8 0.1
v 0.2 2.8 0.1
v -0.2 2.8 -0.1
v 0.2 2.8 -0.1
v -0.3 2.8 -0.2
v 0.3 2.8 -0.2
v -0.2 2.9 0.1
v 0.2 2.9 0.1
v -0.2 2.9 -0.1
v 0.2 2.9 -0.1

# faces
f 3/1/1 2/1/1 1/1/1
f 4/1/1 2/1/1 3/1/1
f 8/2/1 6/2/1 5/2/1
f 9/1/1 8/1/1 7/1/1
f 10/2/1 6/2/1 8/2/1
f 10/1/1 8/1/1 9/1/1
f 11/2/1 10/2/1 9/2/1
f 12/2/1 6/2/1 10/2/1
f 12/2/1 10/2/1 11/2/1
f 15/2/1 11/2/1 9/2/1
f 16/2/1 11/2/1 15/2/1
f 17/2/1 14/2/1 13/2/1
f 18/2/1 14/2/1 17/2/1
f 21/2/1 20/2/1 19/2/1
f 22/2/1 20/2/1 21/2/1
f 26/2/1 25/2/1 24/2/1
f 28/2/1 23/2/1 22/2/1
f 29/2/1 28/2/1 27/2/1
f 30/2/1 23/2/1 28/2/1
f 30/2/1 28/2/1 29/2/1
f 31/2/1 26/2/1 24/2/1
f 32/2/1 29/2/1 27/2/1
f 33/2/1 31/2/1 24/2/1
f 33/2/1 32/2/1 31/2/1
f 34/2/1 29/2/1 32/2/1
f 34/2/1 32/2/1 33/2/1
f 35/2/1 23/2/1 30/2/1
f 36/2/1 23/2/1 35/2/1
f 39/1/1 38/1/1 37/1/1
f 40/1/1 38/1/1 39/1/1
f 41/1/1 38/1/1 40/1/1
f 44/1/1 41/1/1 40/1/1
f 45/2/1 42/2/1 41/2/1
f 45/1/1 41/1/1 44/1/1
f 46/2/1 42/2/1 45/2/1
f 47/2/1 44/2/1 43/2/1
f 47/1/1 45/1/1 44/1/1
f 48/1/1 45/1/1 47/1/1
f 50/2/1 47/2/1 43/2/1
f 51/2/1 47/2/1 50/2/1
f 54/2/1 53/2/1 52/2/1
f 55/2/1 53/2/1 54/2/1
f 56/2/1 50/2/1 49/2/1
f 57/2/1 50/2/1 56/2/1
f 59/2/1 58/2/1 57/2/1
f 60/2/1 58/2/1 59/2/1
f 63/2/1 62/2/1 61/2/1
f 64/2/1 62/2/1 63/2/1
f 67/2/1 66/2/1 65/2/1
f 68/2/1 66/2/1 67/2/1
f 73/2/1 70/2/1 69/2/1
f 74/2/1 70/2/1 73/2/1
f 75/2/1 72/2/1 71/2/1
f 76/2/1 72/2/1 75/2/1
f 79/2/1 78/2/1 77/2/1
f 80/2/1 78/2/1 79/2/1
f 83/2/1 82/2/1 81/2/1
f 84/2/1 82/2/1 83/2/1
f 87/2/1 86/2/1 85/2/1
f 88/2/1 86/2/1 87/2/1
f 91/1/1 90/1/1 89/1/1
f 92/1/1 90/1/1 91/1/1
f 93/1/1 90/1/1 92/1/1
f 94/1/1 90/1/1 93/1/1
f 99/2/1 96/2/1 95/2/1
f 100/2/1 96/2/1 99/2/1
f 101/2/1 98/2/1 97/2/1
f 102/2/1 98/2/1 101/2/1
f 107/2/1 106/2/1 105/2/1
f 108/2/1 106/2/1 107/2/1
f 109/2/1 104/2/1 103/2/1
f 110/2/1 104/2/1 109/2/1
f 113/2/1 112/2/1 111/2/1
f 114/2/1 113/2/1 111/2/1
f 115/2/1 113/2/1 114/2/1
f 118/2/1 117/2/1 116/2/1
f 119/2/1 117/2/1 118/2/1
f 122/1/1 121/1/1 120/1/1
f 123/1/1 122/1/1 120/1/1
f 124/1/1 122/1/1 123/1/1
f 127/1/1 126/1/1 125/1/1
f 128/1/1 126/1/1 127/1/1
f 129/1/2 130/1/2 131/1/2
f 131/1/2 130/1/2 132/1/2
f 133/1/2 134/1/2 135/1/2
f 133/1/2 135/1/2 136/1/2
f 136/1/2 135/1/2 137/1/2
f 138/2/2 139/2/2 140/2/2
f 140/2/2 139/2/2 141/2/2
f 142/2/2 143/2/2 144/2/2
f 142/2/2 144/2/2 145/2/2
f 145/2/2 144/2/2 146/2/2
f 147/1/2 148/1/2 149/1/2
f 149/1/2 148/1/2 150/1/2
f 150/1/2 148/1/2 151/1/2
f 151/1/2 148/1/2 152/1/2
f 153/2/2 154/2/2 157/2/2
f 157/2/2 154/2/2 158/2/2
f 155/2/2 156/2/2 159/2/2
f 159/2/2 156/2/2 160/2/2
f 163/2/2 164/2/2 165/2/2
f 165/2/2 164/2/2 166/2/2
f 161/2/2 162/2/2 167/2/2
f 167/2/2 162/2/2 168/2/2
f 169/2/2 170/2/2 171/2/2
f 171/2/2 170/2/2 172/2/2
f 173/2/2 174/2/2 175/2/2
f 175/2/2 174/2/2 176/2/2
f 177/2/2 178/2/2 179/2/2
f 179/2/2 178/2/2 180/2/2
f 181/2/2 182/2/2 183/2/2
f 183/2/2 182/2/2 184/2/2
f 185/2/2 186/2/2 189/2/2
f 189/2/2 186/2/2 190/2/2
f 187/2/2 188/2/2 191/2/2
f 191/2/2 188/2/2 192/2/2
f 193/2/2 194/2/2 195/2/2
f 195/2/2 194/2/2 196/2/2
f 197/1/2 198/1/2 199/1/2
f 199/1/2 198/1/2 200/1/2
f 200/1/2 198/1/2 201/1/2
f 200/1/2 201/1/2 204/1/2
f 201/2/2 202/2/2 205/2/2
f 204/1/2 201/1/2 205/1/2
f 205/2/2 202/2/2 206/2/2
f 203/2/2 204/2/2 207/2/2
f 204/1/2 205/1/2 207/1/2
f 207/1/2 205/1/2 208/1/2
f 203/2/2 207/2/2 210/2/2
f 210/2/2 207/2/2 211/2/2
f 212/2/2 213/2/2 214/2/2
f 214/2/2 213/2/2 215/2/2
f 209/2/2 210/2/2 216/2/2
f 216/2/2 210/2/2 217/2/2
f 217/2/2 218/2/2 219/2/2
f 219/2/2 218/2/2 220/2/2
f 221/2/2 222/2/2 223/2/2
f 223/2/2 222/2/2 224/2/2
f 226/2/2 227/2/2 228/2/2
f 224/2/2 225/2/2 230/2/2
f 229/2/2 230/2/2 231/2/2
f 230/2/2 225/2/2 232/2/2
f 231/2/2 230/2/2 232/2/2
f 226/2/2 228/2/2 233/2/2
f 229/2/2 231/2/2 234/2/2
f 226/2/2 233/2/2 235/2/2
f 233/2/2 234/2/2 235/2/2
f 234/2/2 231/2/2 236/2/2
f 235/2/2 234/2/2 236/2/2
f 232/2/2 225/2/2 237/2/2
f 237/2/2 225/2/2 238/2/2
f 239/2/2 240/2/2 242/2/2
f 241/1/2 242/1/2 243/1/2
f 242/2/2 240/2/2 244/2/2
f 243/1/2 242/1/2 244/1/2
f 243/2/2 244/2/2 245/2/2
f 244/2/2 240/2/2 246/2/2
f 245/2/2 244/2/2 246/2/2
f 243/2/2 245/2/2 249/2/2
f 249/2/2 245/2/2 250/2/2
f 247/2/2 248/2/2 251/2/2
f 251/2/2 248/2/2 252/2/2
f 253/1/2 254/1/2 255/1/2
f 255/1/2 254/1/2 256/1/2
f 260/2/3 258/2/3 257/2/3
f 261/2/3 258/2/3 260/2/3
f 262/2/3 258/2/3 261/2/3
f 263/2/3 260/2/3 259/2/3
f 263/2/3 261/2/3 260/2/3
f 264/2/3 261/2/3 263/2/3
f 265/2/3 261/2/3 264/2/3
f 267/2/3 266/2/3 265/2/3
f 267/2/3 265/2/3 264/2/3
f 268/2/3 266/2/3 267/2/3
f 271/2/3 270/2/3 269/2/3
f 272/2/3 270/2/3 271/2/3
f 273/2/3 271/2/3 269/2/3
f 274/2/3 271/2/3 273/2/3
f 276/2/3 270/2/3 272/2/3
f 277/2/3 273/2/3 269/2/3
f 279/2/3 276/2/3 275/2/3
f 280/2/3 270/2/3 276/2/3
f 280/2/3 276/2/3 279/2/3
f 281/2/3 278/2/3 277/2/3
f 282/2/3 270/2/3 280/2/3
f 283/2/3 281/2/3 277/2/3
f 283/2/3 282/2/3 281/2/3
f 283/2/3 277/2/3 269/2/3
f 284/2/3 270/2/3 282/2/3
f 284/2/3 282/2/3 283/2/3
f 290/2/3 286/2/3 285/2/3
f 291/2/3 286/2/3 290/2/3
f 294/2/3 290/2/3 289/2/3
f 295/1/3 288/1/3 287/1/3
f 296/1/3 288/1/3 295/1/3
f 297/2/3 294/2/3 293/2/3
f 298/2/3 290/2/3 294/2/3
f 298/2/3 294/2/3 297/2/3
f 302/2/3 290/2/3 298/2/3
f 303/2/3 302/2/3 301/2/3
f 304/2/3 302/2/3 303/2/3
f 305/1/3 300/1/3 299/1/3
f 306/1/3 300/1/3 305/1/3
f 307/2/3 302/2/3 304/2/3
f 308/2/3 290/2/3 302/2/3
f 308/2/3 302/2/3 307/2/3
f 309/2/3 292/2/3 291/2/3
f 310/2/3 292/2/3 309/2/3
f 311/2/3 309/2/3 308/2/3
f 312/2/3 309/2/3 311/2/3
f 315/1/3 314/1/3 313/1/3
f 316/1/3 314/1/3 315/1/3
f 317/1/3 314/1/3 316/1/3
f 320/1/3 317/1/3 316/1/3
f 320/1/3 318/1/3 317/1/3
f 321/1/3 318/1/3 320/1/3
f 322/1/3 318/1/3 321/1/3
f 323/2/3 319/2/3 318/2/3
f 323/1/3 318/1/3 322/1/3
f 324/2/3 319/2/3 323/2/3
f 327/1/3 322/1/3 321/1/3
f 328/1/3 322/1/3 327/1/3
f 329/1/3 326/1/3 325/1/3
f 330/1/3 326/1/3 329/1/3
f 333/1/3 329/1/3 325/1/3
f 334/1/3 329/1/3 333/1/3
f 335/1/3 329/1/3 334/1/3
f 338/1/3 336/1/3 335/1/3
f 338/1/3 335/1/3 334/1/3
f 339/1/3 336/1/3 338/1/3
f 340/1/3 336/1/3 339/1/3
f 341/1/3 338/1/3 337/1/3
f 341/1/3 339/1/3 338/1/3
f 343/2/3 332/2/3 331/2/3
f 344/2/3 332/2/3 343/2/3
f 345/1/3 342/1/3 341/1/3
f 345/1/3 341/1/3 337/1/3
f 346/1/3 342/1/3 345/1/3
f 350/1/3 348/1/3 347/1/3
f 351/1/3 348/1/3 350/1/3
f 355/1/3 350/1/3 349/1/3
f 355/1/3 351/1/3 350/1/3
f 355/1/3 352/1/3 351/1/3
f 356/1/3 352/1/3 355/1/3
f 357/2/3 353/2/3 352/2/3
f 357/1/3 352/1/3 356/1/3
f 358/2/3 353/2/3 357/2/3
f 359/1/3 356/1/3 355/1/3
f 359/1/3 355/1/3 354/1/3
f 360/1/3 356/1/3 359/1/3
f 365/2/3 362/2/3 361/2/3
f 366/2/3 362/2/3 365/2/3
f 367/2/3 364/2/3 363/2/3
f 368/2/3 364/2/3 367/2/3
f 371/2/3 370/2/3 369/2/3
f 372/2/3 370/2/3 371/2/3
f 375/2/3 374/2/3 373/2/3
f 376/2/3 374/2/3 375/2/3
f 379/2/3 378/2/3 377/2/3
f 380/2/3 378/2/3 379/2/3
f 383/2/3 382/2/3 381/2/3
f 384/2/3 382/2/3 383/2/3
f 385/2/4 386/2/4 387/2/4
f 387/2/4 386/2/4 388/2/4
f 389/2/4 390/2/4 391/2/4
f 391/2/4 390/2/4 392/2/4
f 393/1/4 394/1/4 395/1/4
f 395/1/4 394/1/4 396/1/4
f 396/1/4 394/1/4 397/1/4
f 397/1/4 394/1/4 398/1/4
f 396/1/4 397/1/4 399/1/4
f 399/1/4 397/1/4 400/1/4
f 400/1/4 397/1/4 401/1/4
f 402/1/4 403/1/4 404/1/4
f 404/1/4 405/1/4 408/1/4
f 402/1/4 404/1/4 408/1/4
f 408/1/4 405/1/4 409/1/4
f 409/1/4 405/1/4 410/1/4
f 410/1/4 405/1/4 411/1/4
f 409/1/4 410/1/4 413/1/4
f 413/1/4 410/1/4 414/1/4
f 412/1/4 413/1/4 416/1/4
f 414/1/4 415/1/4 416/1/4
f 413/1/4 414/1/4 416/1/4
f 416/1/4 415/1/4 417/1/4
f 406/2/4 407/2/4 418/2/4
f 418/2/4 407/2/4 419/2/4
f 412/1/4 416/1/4 420/1/4
f 420/1/4 416/1/4 421/1/4
f 422/1/4 423/1/4 426/1/4
f 423/1/4 424/1/4 426/1/4
f 426/1/4 424/1/4 427/1/4
f 425/1/4 426/1/4 429/1/4
f 427/1/4 428/1/4 429/1/4
f 426/1/4 427/1/4 429/1/4
f 429/1/4 428/1/4 430/1/4
f 431/2/4 432/2/4 436/2/4
f 436/2/4 432/2/4 437/2/4
f 433/2/4 434/2/4 438/2/4
f 438/2/4 434/2/4 439/2/4
f 435/2/4 436/2/4 441/2/4
f 441/2/4 436/2/4 442/2/4
f 442/2/4 443/2/4 446/2/4
f 440/2/4 441/2/4 446/2/4
f 441/2/4 442/2/4 446/2/4
f 446/2/4 443/2/4 447/2/4
f 447/2/4 443/2/4 448/2/4
f 449/2/4 450/2/4 451/2/4
f 451/2/4 450/2/4 452/2/4
f 453/2/4 454/2/4 456/2/4
f 454/2/4 455/2/4 456/2/4
f 456/2/4 455/2/4 457/2/4
f 457/2/4 455/2/4 458/2/4
f 458/2/4 455/2/4 459/2/4
f 444/2/4 445/2/4 460/2/4
f 460/2/4 445/2/4 461/2/4
f 457/2/4 458/2/4 462/2/4
f 462/2/4 458/2/4 463/2/4
f 463/2/4 464/2/4 467/2/4
f 467/2/4 464/2/4 468/2/4
f 465/2/4 466/2/4 469/2/4
f 469/2/4 466/2/4 470/2/4
f 471/2/4 472/2/4 473/2/4
f 473/2/4 472/2/4 474/2/4
f 474/2/4 472/2/4 475/2/4
f 475/2/4 472/2/4 476/2/4
f 474/2/4 475/2/4 478/2/4
f 478/2/4 475/2/4 479/2/4
f 479/2/4 475/2/4 480/2/4
f 477/2/4 478/2/4 481/2/4
f 478/2/4 479/2/4 481/2/4
f 481/2/4 479/2/4 482/2/4
f 476/2/4 472/2/4 484/2/4
f 482/2/4 479/2/4 486/2/4
f 483/2/4 484/2/4 487/2/4
f 484/2/4 472/2/4 488/2/4
f 487/2/4 484/2/4 488/2/4
f 485/2/4 486/2/4 489/2/4
f 486/2/4 479/2/4 490/2/4
f 489/2/4 486/2/4 490/2/4
f 490/2/4 479/2/4 491/2/4
f 491/2/4 492/2/4 494/2/4
f 490/2/4 491/2/4 494/2/4
f 494/2/4 492/2/4 495/2/4
f 488/2/4 472/2/4 496/2/4
f 494/2/4 495/2/4 497/2/4
f 495/2/4 496/2/4 497/2/4
f 493/2/4 494/2/4 497/2/4
f 496/2/4 472/2/4 498/2/4
f 497/2/4 496/2/4 498/2/4
f 499/2/4 500/2/4 502/2/4
f 501/2/4 502/2/4 503/2/4
f 502/2/4 500/2/4 504/2/4
f 503/2/4 502/2/4 504/2/4
f 501/2/4 503/2/4 505/2/4
f 501/2/4 505/2/4 507/2/4
f 505/2/4 506/2/4 507/2/4
f 507/2/4 506/2/4 508/2/4
f 508/2/4 506/2/4 509/2/4
f 509/2/4 506/2/4 510/2/4
f 515/1/5 512/1/5 511/1/5
f 516/1/5 512/1/5 515/1/5
f 517/1/5 514/1/5 513/1/5
f 518/1/5 514/1/5 517/1/5
f 523/1/5 520/1/5 519/1/5
f 524/1/5 520/1/5 523/1/5
f 525/1/5 522/1/5 521/1/5
f 526/1/5 522/1/5 525/1/5
f 533/1/5 528/1/5 527/1/5
f 534/1/5 528/1/5 533/1/5
f 535/1/5 530/1/5 529/1/5
f 536/1/5 530/1/5 535/1/5
f 537/1/5 532/1/5 531/1/5
f 538/1/5 532/1/5 537/1/5
f 543/2/5 540/2/5 539/2/5
f 544/2/5 540/2/5 543/2/5
f 545/2/5 542/2/5 541/2/5
f 546/2/5 542/2/5 545/2/5
f 551/2/5 548/2/5 547/2/5
f 552/2/5 548/2/5 551/2/5
f 553/2/5 550/2/5 549/2/5
f 554/2/5 550/2/5 553/2/5
f 559/2/5 556/2/5 555/2/5
f 560/2/5 556/2/5 559/2/5
f 561/2/5 558/2/5 557/2/5
f 562/2/5 558/2/5 561/2/5
f 569/2/5 564/2/5 563/2/5
f 570/2/5 564/2/5 569/2/5
f 572/2/5 566/2/5 565/2/5
f 573/2/5 566/2/5 572/2/5
f 575/2/5 568/2/5 567/2/5
f 576/2/5 568/2/5 575/2/5
f 577/2/5 572/2/5 571/2/5
f 578/2/5 572/2/5 577/2/5
f 579/2/5 574/2/5 573/2/5
f 580/2/5 574/2/5 579/2/5
f 585/2/5 582/2/5 581/2/5
f 586/2/5 582/2/5 585/2/5
f 590/1/5 584/1/5 583/1/5
f 591/1/5 584/1/5 590/1/5
f 596/1/5 588/1/5 587/1/5
f 597/1/5 588/1/5 596/1/5
f 599/2/5 590/2/5 589/2/5
f 600/2/5 590/2/5 599/2/5
f 602/2/5 593/2/5 592/2/5
f 603/2/5 593/2/5 602/2/5
f 604/2/5 595/2/5 594/2/5
f 605/2/5 595/2/5 604/2/5
f 607/2/5 598/2/5 597/2/5
f 608/2/5 598/2/5 607/2/5
f 609/2/5 601/2/5 600/2/5
f 610/2/5 601/2/5 609/2/5
f 611/2/5 607/2/5 606/2/5
f 612/2/5 607/2/5 611/2/5
f 616/2/5 614/2/5 613/2/5
f 617/2/5 614/2/5 616/2/5
f 619/2/5 616/2/5 615/2/5
f 620/2/5 616/2/5 619/2/5
f 621/2/5 618/2/5 617/2/5
f 622/2/5 618/2/5 621/2/5
f 629/2/5 624/2/5 623/2/5
f 630/2/5 624/2/5 629/2/5
f 631/2/5 626/2/5 625/2/5
f 632/2/5 626/2/5 631/2/5
f 633/2/5 628/2/5 627/2/5
f 634/2/5 628/2/5 633/2/5
f 637/2/5 636/2/5 635/2/5
f 638/2/5 636/2/5 637/2/5
f 641/2/5 640/2/5 639/2/5
f 642/2/5 640/2/5 641/2/5
f 647/2/5 644/2/5 643/2/5
f 648/2/5 644/2/5 647/2/5
f 649/2/5 646/2/5 645/2/5
f 650/2/5 646/2/5 649/2/5
f 655/2/5 652/2/5 651/2/5
f 656/2/5 652/2/5 655/2/5
f 657/2/5 654/2/5 653/2/5
f 658/2/5 654/2/5 657/2/5
f 663/2/5 660/2/5 659/2/5
f 664/2/5 660/2/5 663/2/5
f 665/2/5 662/2/5 661/2/5
f 666/2/5 662/2/5 665/2/5
f 667/1/6 668/1/6 671/1/6
f 671/1/6 668/1/6 672/1/6
f 669/1/6 670/1/6 673/1/6
f 673/1/6 670/1/6 674/1/6
f 675/1/6 676/1/6 679/1/6
f 679/1/6 676/1/6 680/1/6
f 677/1/6 678/1/6 681/1/6
f 681/1/6 678/1/6 682/1/6
f 683/2/6 684/2/6 687/2/6
f 687/2/6 684/2/6 688/2/6
f 685/2/6 686/2/6 689/2/6
f 689/2/6 686/2/6 690/2/6
f 691/2/6 692/2/6 693/2/6
f 693/2/6 692/2/6 694/2/6
f 695/2/6 696/2/6 697/2/6
f 697/2/6 696/2/6 698/2/6
f 699/2/6 700/2/6 703/2/6
f 703/2/6 700/2/6 704/2/6
f 701/2/6 702/2/6 705/2/6
f 705/2/6 702/2/6 706/2/6
f 707/2/6 708/2/6 711/2/6
f 711/2/6 708/2/6 712/2/6
f 709/2/6 710/2/6 713/2/6
f 713/2/6 710/2/6 714/2/6
f 715/2/6 716/2/6 719/2/6
f 719/2/6 716/2/6 720/2/6
f 717/2/6 718/2/6 721/2/6
f 721/2/6 718/2/6 722/2/6
f 723/2/6 724/2/6 726/2/6
f 726/2/6 724/2/6 727/2/6
f 725/2/6 726/2/6 730/2/6
f 727/2/6 728/2/6 731/2/6
f 729/2/6 730/2/6 733/2/6
f 730/2/6 726/2/6 734/2/6
f 733/2/6 730/2/6 734/2/6
f 734/2/6 726/2/6 735/2/6
f 731/2/6 732/2/6 736/2/6
f 727/2/6 731/2/6 736/2/6
f 736/2/6 732/2/6 737/2/6
f 737/2/6 732/2/6 738/2/6
f 734/2/6 735/2/6 739/2/6
f 736/2/6 737/2/6 739/2/6
f 735/2/6 736/2/6 739/2/6
f 739/2/6 737/2/6 740/2/6
f 741/2/6 742/2/6 743/2/6
f 743/2/6 742/2/6 744/2/6
f 741/2/6 743/2/6 745/2/6
f 744/2/6 742/2/6 746/2/6
f 741/2/6 745/2/6 747/2/6
f 745/2/6 746/2/6 747/2/6
f 746/2/6 742/2/6 748/2/6
f 747/2/6 746/2/6 748/2/6
f 749/2/6 750/2/6 751/2/6
f 751/2/6 750/2/6 752/2/6
