# MagicaVoxel @ Ephtracy

# group
o 

# material
mtllib phone.mtl
usemtl palette

# normals
vn -1 0 0
vn 1 0 0
vn 0 0 1
vn 0 0 -1
vn 0 -1 0
vn 0 1 0

# texcoords
vt 0.970703 0.5
vt 0.974609 0.5
vt 0.978516 0.5
vt 0.982422 0.5
vt 0.986328 0.5

# verts
v -1 1.2 0.8
v -1 1.2 -0.8
v -1 1.5 0.8
v -1 1.5 -0.8
v -0.9 1.3 0.9
v -0.9 1.3 0.8
v -0.9 1.5 0.9
v -0.9 1.5 0.8
v -0.9 1.5 -0.7
v -0.9 1.6 0.8
v -0.9 1.6 -0.7
v -0.8 1 -0.5
v -0.8 1 -0.6
v -0.8 1.1 -0.4
v -0.8 1.1 -0.5
v -0.8 1.2 -0.4
v -0.8 1.2 -0.6
v -0.8 1.5 0.9
v -0.8 1.5 0.8
v -0.8 1.5 -0.7
v -0.8 1.5 -0.8
v -0.8 1.6 0.9
v -0.8 1.6 0.8
v -0.8 1.6 -0.7
v -0.8 1.6 -0.8
v -0.8 1.7 0.8
v -0.8 1.7 -0.7
v -0.7 1.3 -0.8
v -0.7 1.3 -0.9
v -0.7 1.4 -0.8
v -0.7 1.5 -0.8
v -0.7 1.5 -0.9
v -0.2 1.2 -0.3
v -0.2 1.2 -0.4
v -0.2 1.3 -0.3
v -0.2 1.3 -0.4
v 0 1.5 0.6
v 0 1.5 0.5
v 0 1.5 0.4
v 0 1.5 0.3
v 0 1.5 0.2
v 0 1.5 0.1
v 0 1.5 0
v 0 1.5 -0.1
v 0 1.6 0.6
v 0 1.6 0.5
v 0 1.6 0.4
v 0 1.6 0.3
v 0 1.6 0.2
v 0 1.6 0.1
v 0 1.6 0
v 0 1.6 -0.1
v 0.2 1 -0.5
v 0.2 1 -0.6
v 0.2 1.1 -0.4
v 0.2 1.1 -0.5
v 0.2 1.2 -0.4
v 0.2 1.2 -0.6
v 0.3 1.5 0.6
v 0.3 1.5 0.5
v 0.3 1.5 0.4
v 0.3 1.5 0.3
v 0.3 1.5 0.2
v 0.3 1.5 0.1
v 0.3 1.5 0
v 0.3 1.5 -0.1
v 0.3 1.6 0.6
v 0.3 1.6 0.5
v 0.3 1.6 0.4
v 0.3 1.6 0.3
v 0.3 1.6 0.2
v 0.3 1.6 0.1
v 0.3 1.6 0
v 0.3 1.6 -0.1
v 0.6 1.5 0.6
v 0.6 1.5 0.5
v 0.6 1.5 0.4
v 0.6 1.5 0.3
v 0.6 1.5 0.2
v 0.6 1.5 0.1
v 0.6 1.5 0
v 0.6 1.5 -0.1
v 0.6 1.6 0.6
v 0.6 1.6 0.5
v 0.6 1.6 0.4
v 0.6 1.6 0.3
v 0.6 1.6 0.2
v 0.6 1.6 0.1
v 0.6 1.6 0
v 0.6 1.6 -0.1
v 0.8 1.2 -0.3
v 0.8 1.2 -0.4
v 0.8 1.3 -0.3
v 0.8 1.3 -0.4
v -0.8 1.2 -0.3
v -0.8 1.2 -0.4
v -0.8 1.3 -0.3
v -0.8 1.3 -0.4
v -0.5 1.3 -0.8
v -0.5 1.3 -0.9
v -0.5 1.4 -0.8
v -0.5 1.5 -0.8
v -0.5 1.5 -0.9
v -0.4 1.5 0.9
v -0.4 1.5 0.8
v -0.4 1.5 -0.7
v -0.4 1.5 -0.8
v -0.4 1.6 0.9
v -0.4 1.6 0.8
v -0.4 1.6 -0.7
v -0.4 1.6 -0.8
v -0.4 1.7 0.8
v -0.4 1.7 -0.7
v -0.3 1.3 0.9
v -0.3 1.3 0.8
v -0.3 1.5 0.9
v -0.3 1.5 0.8
v -0.3 1.5 -0.7
v -0.3 1.6 0.8
v -0.3 1.6 -0.7
v -0.2 1 -0.5
v -0.2 1 -0.6
v -0.2 1.1 -0.4
v -0.2 1.1 -0.5
v -0.2 1.2 -0.4
v -0.2 1.2 -0.6
v 0.1 1.5 0.6
v 0.1 1.5 0.5
v 0.1 1.5 0.4
v 0.1 1.5 0.3
v 0.1 1.5 0.2
v 0.1 1.5 0.1
v 0.1 1.5 0
v 0.1 1.5 -0.1
v 0.1 1.6 0.6
v 0.1 1.6 0.5
v 0.1 1.6 0.4
v 0.1 1.6 0.3
v 0.1 1.6 0.2
v 0.1 1.6 0.1
v 0.1 1.6 0
v 0.1 1.6 -0.1
v 0.2 1.2 -0.3
v 0.2 1.2 -0.4
v 0.2 1.3 -0.3
v 0.2 1.3 -0.4
v 0.4 1.5 0.6
v 0.4 1.5 0.5
v 0.4 1.5 0.4
v 0.4 1.5 0.3
v 0.4 1.5 0.2
v 0.4 1.5 0.1
v 0.4 1.5 0
v 0.4 1.5 -0.1
v 0.4 1.6 0.6
v 0.4 1.6 0.5
v 0.4 1.6 0.4
v 0.4 1.6 0.3
v 0.4 1.6 0.2
v 0.4 1.6 0.1
v 0.4 1.6 0
v 0.4 1.6 -0.1
v 0.7 1.5 0.6
v 0.7 1.5 0.5
v 0.7 1.5 0.4
v 0.7 1.5 0.3
v 0.7 1.5 0.2
v 0.7 1.5 0.1
v 0.7 1.5 0
v 0.7 1.5 -0.1
v 0.7 1.6 0.6
v 0.7 1.6 0.5
v 0.7 1.6 0.4
v 0.7 1.6 0.3
v 0.7 1.6 0.2
v 0.7 1.6 0.1
v 0.7 1.6 0
v 0.7 1.6 -0.1
v 0.8 1 -0.5
v 0.8 1 -0.6
v 0.8 1.1 -0.4
v 0.8 1.1 -0.5
v 0.8 1.2 -0.4
v 0.8 1.2 -0.6
v 0.9 1.4 0.8
v 0.9 1.4 0.7
v 0.9 1.4 -0.7
v 0.9 1.4 -0.8
v 0.9 1.5 0.8
v 0.9 1.5 0.7
v 0.9 1.5 -0.7
v 0.9 1.5 -0.8
v 1 1.2 0.8
v 1 1.2 -0.8
v 1 1.4 0.8
v 1 1.4 0.7
v 1 1.4 -0.7
v 1 1.4 -0.8
v 1 1.5 0.7
v 1 1.5 -0.7
v -0.9 1.3 0.9
v -0.9 1.5 0.9
v -0.8 1.5 0.9
v -0.8 1.6 0.9
v -0.4 1.5 0.9
v -0.4 1.6 0.9
v -0.3 1.3 0.9
v -0.3 1.5 0.9
v -1 1.2 0.8
v -1 1.5 0.8
v -0.9 1.3 0.8
v -0.9 1.5 0.8
v -0.9 1.6 0.8
v -0.8 1.5 0.8
v -0.8 1.6 0.8
v -0.8 1.7 0.8
v -0.4 1.5 0.8
v -0.4 1.6 0.8
v -0.4 1.7 0.8
v -0.3 1.3 0.8
v -0.3 1.5 0.8
v -0.3 1.6 0.8
v 0.9 1.4 0.8
v 0.9 1.5 0.8
v 1 1.2 0.8
v 1 1.4 0.8
v 0.9 1.4 0.7
v 0.9 1.5 0.7
v 1 1.4 0.7
v 1 1.5 0.7
v 0 1.5 0.6
v 0 1.6 0.6
v 0.1 1.5 0.6
v 0.1 1.6 0.6
v 0.3 1.5 0.6
v 0.3 1.6 0.6
v 0.4 1.5 0.6
v 0.4 1.6 0.6
v 0.6 1.5 0.6
v 0.6 1.6 0.6
v 0.7 1.5 0.6
v 0.7 1.6 0.6
v 0 1.5 0.4
v 0 1.6 0.4
v 0.1 1.5 0.4
v 0.1 1.6 0.4
v 0.3 1.5 0.4
v 0.3 1.6 0.4
v 0.4 1.5 0.4
v 0.4 1.6 0.4
v 0.6 1.5 0.4
v 0.6 1.6 0.4
v 0.7 1.5 0.4
v 0.7 1.6 0.4
v 0 1.5 0.2
v 0 1.6 0.2
v 0.1 1.5 0.2
v 0.1 1.6 0.2
v 0.3 1.5 0.2
v 0.3 1.6 0.2
v 0.4 1.5 0.2
v 0.4 1.6 0.2
v 0.6 1.5 0.2
v 0.6 1.6 0.2
v 0.7 1.5 0.2
v 0.7 1.6 0.2
v 0 1.5 0
v 0 1.6 0
v 0.1 1.5 0
v 0.1 1.6 0
v 0.3 1.5 0
v 0.3 1.6 0
v 0.4 1.5 0
v 0.4 1.6 0
v 0.6 1.5 0
v 0.6 1.6 0
v 0.7 1.5 0
v 0.7 1.6 0
v -0.8 1.1 -0.4
v -0.8 1.2 -0.4
v -0.8 1.3 -0.4
v -0.2 1.1 -0.4
v -0.2 1.2 -0.4
v -0.2 1.3 -0.4
v 0.2 1.1 -0.4
v 0.2 1.2 -0.4
v 0.2 1.3 -0.4
v 0.8 1.1 -0.4
v 0.8 1.2 -0.4
v 0.8 1.3 -0.4
v -0.8 1 -0.5
v -0.8 1.1 -0.5
v -0.2 1 -0.5
v -0.2 1.1 -0.5
v 0.2 1 -0.5
v 0.2 1.1 -0.5
v 0.8 1 -0.5
v 0.8 1.1 -0.5
v 0 1.5 0.5
v 0 1.6 0.5
v 0.1 1.5 0.5
v 0.1 1.6 0.5
v 0.3 1.5 0.5
v 0.3 1.6 0.5
v 0.4 1.5 0.5
v 0.4 1.6 0.5
v 0.6 1.5 0.5
v 0.6 1.6 0.5
v 0.7 1.5 0.5
v 0.7 1.6 0.5
v 0 1.5 0.3
v 0 1.6 0.3
v 0.1 1.5 0.3
v 0.1 1.6 0.3
v 0.3 1.5 0.3
v 0.3 1.6 0.3
v 0.4 1.5 0.3
v 0.4 1.6 0.3
v 0.6 1.5 0.3
v 0.6 1.6 0.3
v 0.7 1.5 0.3
v 0.7 1.6 0.3
v 0 1.5 0.1
v 0 1.6 0.1
v 0.1 1.5 0.1
v 0.1 1.6 0.1
v 0.3 1.5 0.1
v 0.3 1.6 0.1
v 0.4 1.5 0.1
v 0.4 1.6 0.1
v 0.6 1.5 0.1
v 0.6 1.6 0.1
v 0.7 1.5 0.1
v 0.7 1.6 0.1
v 0 1.5 -0.1
v 0 1.6 -0.1
v 0.1 1.5 -0.1
v 0.1 1.6 -0.1
v 0.3 1.5 -0.1
v 0.3 1.6 -0.1
v 0.4 1.5 -0.1
v 0.4 1.6 -0.1
v 0.6 1.5 -0.1
v 0.6 1.6 -0.1
v 0.7 1.5 -0.1
v 0.7 1.6 -0.1
v -0.8 1.2 -0.3
v -0.8 1.3 -0.3
v -0.2 1.2 -0.3
v -0.2 1.3 -0.3
v 0.2 1.2 -0.3
v 0.2 1.3 -0.3
v 0.8 1.2 -0.3
v 0.8 1.3 -0.3
v -0.8 1 -0.6
v -0.8 1.2 -0.6
v -0.2 1 -0.6
v -0.2 1.2 -0.6
v 0.2 1 -0.6
v 0.2 1.2 -0.6
v 0.8 1 -0.6
v 0.8 1.2 -0.6
v -0.9 1.5 -0.7
v -0.9 1.6 -0.7
v -0.8 1.5 -0.7
v -0.8 1.6 -0.7
v -0.8 1.7 -0.7
v -0.4 1.5 -0.7
v -0.4 1.6 -0.7
v -0.4 1.7 -0.7
v -0.3 1.5 -0.7
v -0.3 1.6 -0.7
v 0.9 1.4 -0.7
v 0.9 1.5 -0.7
v 1 1.4 -0.7
v 1 1.5 -0.7
v -1 1.2 -0.8
v -1 1.5 -0.8
v -0.9 1.4 -0.8
v -0.9 1.5 -0.8
v -0.8 1.5 -0.8
v -0.8 1.6 -0.8
v -0.7 1.3 -0.8
v -0.7 1.4 -0.8
v -0.7 1.5 -0.8
v -0.5 1.3 -0.8
v -0.5 1.4 -0.8
v -0.5 1.5 -0.8
v -0.4 1.5 -0.8
v -0.4 1.6 -0.8
v -0.3 1.4 -0.8
v -0.3 1.5 -0.8
v 0.9 1.4 -0.8
v 0.9 1.5 -0.8
v 1 1.2 -0.8
v 1 1.4 -0.8
v -0.7 1.3 -0.9
v -0.7 1.5 -0.9
v -0.5 1.3 -0.9
v -0.5 1.5 -0.9
v -0.8 1 -0.5
v -0.2 1 -0.5
v 0.2 1 -0.5
v 0.8 1 -0.5
v -0.8 1 -0.6
v -0.2 1 -0.6
v 0.2 1 -0.6
v 0.8 1 -0.6
v -0.8 1.1 -0.4
v -0.2 1.1 -0.4
v 0.2 1.1 -0.4
v 0.8 1.1 -0.4
v -0.8 1.1 -0.5
v -0.2 1.1 -0.5
v 0.2 1.1 -0.5
v 0.8 1.1 -0.5
v -1 1.2 0.8
v 1 1.2 0.8
v -0.8 1.2 -0.3
v -0.2 1.2 -0.3
v 0.2 1.2 -0.3
v 0.8 1.2 -0.3
v -0.8 1.2 -0.4
v -0.2 1.2 -0.4
v 0.2 1.2 -0.4
v 0.8 1.2 -0.4
v -0.8 1.2 -0.6
v -0.2 1.2 -0.6
v 0.2 1.2 -0.6
v 0.8 1.2 -0.6
v -1 1.2 -0.8
v 1 1.2 -0.8
v -0.9 1.3 0.9
v -0.3 1.3 0.9
v -0.9 1.3 0.8
v -0.3 1.3 0.8
v -0.8 1.3 -0.3
v -0.2 1.3 -0.3
v 0.2 1.3 -0.3
v 0.8 1.3 -0.3
v -0.8 1.3 -0.4
v -0.2 1.3 -0.4
v 0.2 1.3 -0.4
v 0.8 1.3 -0.4
v -0.7 1.3 -0.8
v -0.5 1.3 -0.8
v -0.7 1.3 -0.9
v -0.5 1.3 -0.9
v 0.9 1.4 0.8
v 1 1.4 0.8
v 0.9 1.4 0.7
v 1 1.4 0.7
v 0.9 1.4 -0.7
v 1 1.4 -0.7
v 0.9 1.4 -0.8
v 1 1.4 -0.8
v -0.9 1.5 0.9
v -0.8 1.5 0.9
v -0.4 1.5 0.9
v -0.3 1.5 0.9
v -1 1.5 0.8
v -0.9 1.5 0.8
v -0.8 1.5 0.8
v -0.4 1.5 0.8
v -0.3 1.5 0.8
v 0.9 1.5 0.8
v 0.9 1.5 0.7
v 1 1.5 0.7
v 0 1.5 0.6
v 0.1 1.5 0.6
v 0.3 1.5 0.6
v 0.4 1.5 0.6
v 0.6 1.5 0.6
v 0.7 1.5 0.6
v 0 1.5 0.5
v 0.1 1.5 0.5
v 0.3 1.5 0.5
v 0.4 1.5 0.5
v 0.6 1.5 0.5
v 0.7 1.5 0.5
v 0 1.5 0.4
v 0.1 1.5 0.4
v 0.3 1.5 0.4
v 0.4 1.5 0.4
v 0.6 1.5 0.4
v 0.7 1.5 0.4
v 0 1.5 0.3
v 0.1 1.5 0.3
v 0.3 1.5 0.3
v 0.4 1.5 0.3
v 0.6 1.5 0.3
v 0.7 1.5 0.3
v 0 1.5 0.2
v 0.1 1.5 0.2
v 0.3 1.5 0.2
v 0.4 1.5 0.2
v 0.6 1.5 0.2
v 0.7 1.5 0.2
v 0 1.5 0.1
v 0.1 1.5 0.1
v 0.3 1.5 0.1
v 0.4 1.5 0.1
v 0.6 1.5 0.1
v 0.7 1.5 0.1
v 0 1.5 0
v 0.1 1.5 0
v 0.3 1.5 0
v 0.4 1.5 0
v 0.6 1.5 0
v 0.7 1.5 0
v 0 1.5 -0.1
v 0.1 1.5 -0.1
v 0.3 1.5 -0.1
v 0.4 1.5 -0.1
v 0.6 1.5 -0.1
v 0.7 1.5 -0.1
v -0.1 1.5 -0.2
v 0.8 1.5 -0.2
v -0.1 1.5 -0.3
v 0.8 1.5 -0.3
v -0.1 1.5 -0.6
v 0.8 1.5 -0.6
v -0.9 1.5 -0.7
v -0.8 1.5 -0.7
v -0.4 1.5 -0.7
v -0.3 1.5 -0.7
v 0.9 1.5 -0.7
v 1 1.5 -0.7
v -1 1.5 -0.8
v -0.9 1.5 -0.8
v -0.8 1.5 -0.8
v -0.7 1.5 -0.8
v -0.5 1.5 -0.8
v -0.4 1.5 -0.8
v -0.3 1.5 -0.8
v 0.9 1.5 -0.8
v -0.7 1.5 -0.9
v -0.5 1.5 -0.9
v -0.8 1.6 0.9
v -0.4 1.6 0.9
v -0.9 1.6 0.8
v -0.8 1.6 0.8
v -0.4 1.6 0.8
v -0.3 1.6 0.8
v 0 1.6 0.6
v 0.1 1.6 0.6
v 0.3 1.6 0.6
v 0.4 1.6 0.6
v 0.6 1.6 0.6
v 0.7 1.6 0.6
v 0 1.6 0.5
v 0.1 1.6 0.5
v 0.3 1.6 0.5
v 0.4 1.6 0.5
v 0.6 1.6 0.5
v 0.7 1.6 0.5
v 0 1.6 0.4
v 0.1 1.6 0.4
v 0.3 1.6 0.4
v 0.4 1.6 0.4
v 0.6 1.6 0.4
v 0.7 1.6 0.4
v 0 1.6 0.3
v 0.1 1.6 0.3
v 0.3 1.6 0.3
v 0.4 1.6 0.3
v 0.6 1.6 0.3
v 0.7 1.6 0.3
v 0 1.6 0.2
v 0.1 1.6 0.2
v 0.3 1.6 0.2
v 0.4 1.6 0.2
v 0.6 1.6 0.2
v 0.7 1.6 0.2
v 0 1.6 0.1
v 0.1 1.6 0.1
v 0.3 1.6 0.1
v 0.4 1.6 0.1
v 0.6 1.6 0.1
v 0.7 1.6 0.1
v 0 1.6 0
v 0.1 1.6 0
v 0.3 1.6 0
v 0.4 1.6 0
v 0.6 1.6 0
v 0.7 1.6 0
v 0 1.6 -0.1
v 0.1 1.6 -0.1
v 0.3 1.6 -0.1
v 0.4 1.6 -0.1
v 0.6 1.6 -0.1
v 0.7 1.6 -0.1
v -0.9 1.6 -0.7
v -0.8 1.6 -0.7
v -0.4 1.6 -0.7
v -0.3 1.6 -0.7
v -0.8 1.6 -0.8
v -0.4 1.6 -0.8
v -0.8 1.7 0.8
v -0.4 1.7 0.8
v -0.8 1.7 -0.7
v -0.4 1.7 -0.7

# faces
f 3/5/1 2/5/1 1/5/1
f 4/5/1 2/5/1 3/5/1
f 7/3/1 6/3/1 5/3/1
f 8/3/1 6/3/1 7/3/1
f 10/3/1 9/3/1 8/3/1
f 11/3/1 9/3/1 10/3/1
f 15/5/1 13/5/1 12/5/1
f 16/5/1 15/5/1 14/5/1
f 17/5/1 13/5/1 15/5/1
f 17/5/1 15/5/1 16/5/1
f 22/3/1 19/3/1 18/3/1
f 23/3/1 19/3/1 22/3/1
f 24/3/1 21/3/1 20/3/1
f 25/3/1 21/3/1 24/3/1
f 26/3/1 24/3/1 23/3/1
f 27/3/1 24/3/1 26/3/1
f 30/4/1 29/4/1 28/4/1
f 31/4/1 29/4/1 30/4/1
f 32/4/1 29/4/1 31/4/1
f 35/5/1 34/5/1 33/5/1
f 36/5/1 34/5/1 35/5/1
f 45/4/1 38/4/1 37/4/1
f 46/4/1 38/4/1 45/4/1
f 47/4/1 40/4/1 39/4/1
f 48/4/1 40/4/1 47/4/1
f 49/4/1 42/4/1 41/4/1
f 50/4/1 42/4/1 49/4/1
f 51/4/1 44/4/1 43/4/1
f 52/4/1 44/4/1 51/4/1
f 56/5/1 54/5/1 53/5/1
f 57/5/1 56/5/1 55/5/1
f 58/5/1 54/5/1 56/5/1
f 58/5/1 56/5/1 57/5/1
f 67/4/1 60/4/1 59/4/1
f 68/4/1 60/4/1 67/4/1
f 69/4/1 62/4/1 61/4/1
f 70/4/1 62/4/1 69/4/1
f 71/4/1 64/4/1 63/4/1
f 72/4/1 64/4/1 71/4/1
f 73/4/1 66/4/1 65/4/1
f 74/4/1 66/4/1 73/4/1
f 83/4/1 76/4/1 75/4/1
f 84/4/1 76/4/1 83/4/1
f 85/4/1 78/4/1 77/4/1
f 86/4/1 78/4/1 85/4/1
f 87/4/1 80/4/1 79/4/1
f 88/4/1 80/4/1 87/4/1
f 89/4/1 82/4/1 81/4/1
f 90/4/1 82/4/1 89/4/1
f 93/5/1 92/5/1 91/5/1
f 94/5/1 92/5/1 93/5/1
f 95/5/2 96/5/2 97/5/2
f 97/5/2 96/5/2 98/5/2
f 99/4/2 100/4/2 101/4/2
f 101/4/2 100/4/2 102/4/2
f 102/4/2 100/4/2 103/4/2
f 104/3/2 105/3/2 108/3/2
f 108/3/2 105/3/2 109/3/2
f 106/3/2 107/3/2 110/3/2
f 110/3/2 107/3/2 111/3/2
f 109/3/2 110/3/2 112/3/2
f 112/3/2 110/3/2 113/3/2
f 114/3/2 115/3/2 116/3/2
f 116/3/2 115/3/2 117/3/2
f 117/3/2 118/3/2 119/3/2
f 119/3/2 118/3/2 120/3/2
f 121/5/2 122/5/2 124/5/2
f 123/5/2 124/5/2 125/5/2
f 124/5/2 122/5/2 126/5/2
f 125/5/2 124/5/2 126/5/2
f 127/4/2 128/4/2 135/4/2
f 135/4/2 128/4/2 136/4/2
f 129/4/2 130/4/2 137/4/2
f 137/4/2 130/4/2 138/4/2
f 131/4/2 132/4/2 139/4/2
f 139/4/2 132/4/2 140/4/2
f 133/4/2 134/4/2 141/4/2
f 141/4/2 134/4/2 142/4/2
f 143/5/2 144/5/2 145/5/2
f 145/5/2 144/5/2 146/5/2
f 147/4/2 148/4/2 155/4/2
f 155/4/2 148/4/2 156/4/2
f 149/4/2 150/4/2 157/4/2
f 157/4/2 150/4/2 158/4/2
f 151/4/2 152/4/2 159/4/2
f 159/4/2 152/4/2 160/4/2
f 153/4/2 154/4/2 161/4/2
f 161/4/2 154/4/2 162/4/2
f 163/4/2 164/4/2 171/4/2
f 171/4/2 164/4/2 172/4/2
f 165/4/2 166/4/2 173/4/2
f 173/4/2 166/4/2 174/4/2
f 167/4/2 168/4/2 175/4/2
f 175/4/2 168/4/2 176/4/2
f 169/4/2 170/4/2 177/4/2
f 177/4/2 170/4/2 178/4/2
f 179/5/2 180/5/2 182/5/2
f 181/5/2 182/5/2 183/5/2
f 182/5/2 180/5/2 184/5/2
f 183/5/2 182/5/2 184/5/2
f 185/5/2 186/5/2 189/5/2
f 189/5/2 186/5/2 190/5/2
f 187/5/2 188/5/2 191/5/2
f 191/5/2 188/5/2 192/5/2
f 193/5/2 194/5/2 195/5/2
f 195/5/2 194/5/2 196/5/2
f 196/5/2 194/5/2 197/5/2
f 197/5/2 194/5/2 198/5/2
f 196/5/2 197/5/2 199/5/2
f 199/5/2 197/5/2 200/5/2
f 203/3/3 202/3/3 201/3/3
f 205/3/3 203/3/3 201/3/3
f 205/3/3 204/3/3 203/3/3
f 206/3/3 204/3/3 205/3/3
f 207/3/3 205/3/3 201/3/3
f 208/3/3 205/3/3 207/3/3
f 211/5/3 210/5/3 209/5/3
f 212/5/3 210/5/3 211/5/3
f 214/3/3 213/3/3 212/3/3
f 215/3/3 213/3/3 214/3/3
f 218/3/3 216/3/3 215/3/3
f 219/3/3 216/3/3 218/3/3
f 220/5/3 211/5/3 209/5/3
f 221/3/3 218/3/3 217/3/3
f 222/3/3 218/3/3 221/3/3
f 223/5/3 221/5/3 220/5/3
f 224/5/3 221/5/3 223/5/3
f 225/5/3 220/5/3 209/5/3
f 225/5/3 223/5/3 220/5/3
f 226/5/3 223/5/3 225/5/3
f 229/5/3 228/5/3 227/5/3
f 230/5/3 228/5/3 229/5/3
f 233/4/3 232/4/3 231/4/3
f 234/4/3 232/4/3 233/4/3
f 237/4/3 236/4/3 235/4/3
f 238/4/3 236/4/3 237/4/3
f 241/4/3 240/4/3 239/4/3
f 242/4/3 240/4/3 241/4/3
f 245/4/3 244/4/3 243/4/3
f 246/4/3 244/4/3 245/4/3
f 249/4/3 248/4/3 247/4/3
f 250/4/3 248/4/3 249/4/3
f 253/4/3 252/4/3 251/4/3
f 254/4/3 252/4/3 253/4/3
f 257/4/3 256/4/3 255/4/3
f 258/4/3 256/4/3 257/4/3
f 261/4/3 260/4/3 259/4/3
f 262/4/3 260/4/3 261/4/3
f 265/4/3 264/4/3 263/4/3
f 266/4/3 264/4/3 265/4/3
f 269/4/3 268/4/3 267/4/3
f 270/4/3 268/4/3 269/4/3
f 273/4/3 272/4/3 271/4/3
f 274/4/3 272/4/3 273/4/3
f 277/4/3 276/4/3 275/4/3
f 278/4/3 276/4/3 277/4/3
f 282/5/3 280/5/3 279/5/3
f 282/5/3 281/5/3 280/5/3
f 283/5/3 281/5/3 282/5/3
f 284/5/3 281/5/3 283/5/3
f 288/5/3 286/5/3 285/5/3
f 288/5/3 287/5/3 286/5/3
f 289/5/3 287/5/3 288/5/3
f 290/5/3 287/5/3 289/5/3
f 293/5/3 292/5/3 291/5/3
f 294/5/3 292/5/3 293/5/3
f 297/5/3 296/5/3 295/5/3
f 298/5/3 296/5/3 297/5/3
f 299/4/4 300/4/4 301/4/4
f 301/4/4 300/4/4 302/4/4
f 303/4/4 304/4/4 305/4/4
f 305/4/4 304/4/4 306/4/4
f 307/4/4 308/4/4 309/4/4
f 309/4/4 308/4/4 310/4/4
f 311/4/4 312/4/4 313/4/4
f 313/4/4 312/4/4 314/4/4
f 315/4/4 316/4/4 317/4/4
f 317/4/4 316/4/4 318/4/4
f 319/4/4 320/4/4 321/4/4
f 321/4/4 320/4/4 322/4/4
f 323/4/4 324/4/4 325/4/4
f 325/4/4 324/4/4 326/4/4
f 327/4/4 328/4/4 329/4/4
f 329/4/4 328/4/4 330/4/4
f 331/4/4 332/4/4 333/4/4
f 333/4/4 332/4/4 334/4/4
f 335/4/4 336/4/4 337/4/4
f 337/4/4 336/4/4 338/4/4
f 339/4/4 340/4/4 341/4/4
f 341/4/4 340/4/4 342/4/4
f 343/4/4 344/4/4 345/4/4
f 345/4/4 344/4/4 346/4/4
f 347/5/4 348/5/4 349/5/4
f 349/5/4 348/5/4 350/5/4
f 351/5/4 352/5/4 353/5/4
f 353/5/4 352/5/4 354/5/4
f 355/5/4 356/5/4 357/5/4
f 357/5/4 356/5/4 358/5/4
f 359/5/4 360/5/4 361/5/4
f 361/5/4 360/5/4 362/5/4
f 363/3/4 364/3/4 365/3/4
f 365/3/4 364/3/4 366/3/4
f 366/3/4 367/3/4 369/3/4
f 369/3/4 367/3/4 370/3/4
f 368/3/4 369/3/4 371/3/4
f 371/3/4 369/3/4 372/3/4
f 373/5/4 374/5/4 375/5/4
f 375/5/4 374/5/4 376/5/4
f 377/5/4 378/5/4 379/5/4
f 379/5/4 378/5/4 380/5/4
f 379/3/4 380/3/4 381/3/4
f 377/5/4 379/5/4 383/5/4
f 381/3/4 382/3/4 384/3/4
f 383/5/4 379/5/4 384/5/4
f 379/3/4 381/3/4 384/3/4
f 384/3/4 382/3/4 385/3/4
f 377/5/4 383/5/4 386/5/4
f 385/3/4 382/3/4 388/3/4
f 388/3/4 382/3/4 389/3/4
f 387/3/4 388/3/4 389/3/4
f 389/3/4 382/3/4 390/3/4
f 386/5/4 387/5/4 391/5/4
f 387/3/4 389/3/4 391/3/4
f 391/3/4 389/3/4 392/3/4
f 386/5/4 391/5/4 393/5/4
f 391/5/4 392/5/4 393/5/4
f 393/5/4 392/5/4 394/5/4
f 377/5/4 386/5/4 395/5/4
f 386/5/4 393/5/4 395/5/4
f 395/5/4 393/5/4 396/5/4
f 397/4/4 398/4/4 399/4/4
f 399/4/4 398/4/4 400/4/4
f 405/5/5 402/5/5 401/5/5
f 406/5/5 402/5/5 405/5/5
f 407/5/5 404/5/5 403/5/5
f 408/5/5 404/5/5 407/5/5
f 413/5/5 410/5/5 409/5/5
f 414/5/5 410/5/5 413/5/5
f 415/5/5 412/5/5 411/5/5
f 416/5/5 412/5/5 415/5/5
f 419/5/5 418/5/5 417/5/5
f 420/5/5 418/5/5 419/5/5
f 421/5/5 418/5/5 420/5/5
f 422/5/5 418/5/5 421/5/5
f 423/5/5 419/5/5 417/5/5
f 424/5/5 421/5/5 420/5/5
f 425/5/5 421/5/5 424/5/5
f 426/5/5 418/5/5 422/5/5
f 427/5/5 423/5/5 417/5/5
f 428/5/5 425/5/5 424/5/5
f 429/5/5 425/5/5 428/5/5
f 430/5/5 418/5/5 426/5/5
f 431/5/5 427/5/5 417/5/5
f 431/5/5 430/5/5 429/5/5
f 431/5/5 429/5/5 428/5/5
f 431/5/5 428/5/5 427/5/5
f 432/5/5 418/5/5 430/5/5
f 432/5/5 430/5/5 431/5/5
f 435/3/5 434/3/5 433/3/5
f 436/3/5 434/3/5 435/3/5
f 441/5/5 438/5/5 437/5/5
f 442/5/5 438/5/5 441/5/5
f 443/5/5 440/5/5 439/5/5
f 444/5/5 440/5/5 443/5/5
f 447/4/5 446/4/5 445/4/5
f 448/4/5 446/4/5 447/4/5
f 449/5/6 450/5/6 451/5/6
f 451/5/6 450/5/6 452/5/6
f 453/5/6 454/5/6 455/5/6
f 455/5/6 454/5/6 456/5/6
f 457/3/6 458/3/6 462/3/6
f 462/3/6 458/3/6 463/3/6
f 459/3/6 460/3/6 464/3/6
f 464/3/6 460/3/6 465/3/6
f 465/5/6 466/5/6 467/5/6
f 465/5/6 467/5/6 469/5/6
f 467/5/6 468/5/6 469/5/6
f 469/5/6 468/5/6 470/5/6
f 470/5/6 468/5/6 471/5/6
f 471/5/6 468/5/6 472/5/6
f 472/5/6 468/5/6 473/5/6
f 473/5/6 468/5/6 474/5/6
f 465/5/6 469/5/6 475/5/6
f 470/5/6 471/5/6 476/5/6
f 476/5/6 471/5/6 477/5/6
f 472/5/6 473/5/6 478/5/6
f 478/5/6 473/5/6 479/5/6
f 474/5/6 468/5/6 480/5/6
f 478/5/6 479/5/6 481/5/6
f 479/5/6 480/5/6 481/5/6
f 476/5/6 477/5/6 481/5/6
f 465/5/6 475/5/6 481/5/6
f 477/5/6 478/5/6 481/5/6
f 475/5/6 476/5/6 481/5/6
f 481/5/6 480/5/6 482/5/6
f 482/5/6 480/5/6 483/5/6
f 483/5/6 480/5/6 484/5/6
f 484/5/6 480/5/6 485/5/6
f 480/5/6 468/5/6 486/5/6
f 485/5/6 480/5/6 486/5/6
f 465/5/6 481/5/6 487/5/6
f 482/5/6 483/5/6 488/5/6
f 488/5/6 483/5/6 489/5/6
f 484/5/6 485/5/6 490/5/6
f 490/5/6 485/5/6 491/5/6
f 486/5/6 468/5/6 492/5/6
f 488/5/6 489/5/6 493/5/6
f 491/5/6 492/5/6 493/5/6
f 490/5/6 491/5/6 493/5/6
f 465/5/6 487/5/6 493/5/6
f 489/5/6 490/5/6 493/5/6
f 487/5/6 488/5/6 493/5/6
f 493/5/6 492/5/6 494/5/6
f 494/5/6 492/5/6 495/5/6
f 495/5/6 492/5/6 496/5/6
f 496/5/6 492/5/6 497/5/6
f 492/5/6 468/5/6 498/5/6
f 497/5/6 492/5/6 498/5/6
f 465/5/6 493/5/6 499/5/6
f 494/5/6 495/5/6 500/5/6
f 500/5/6 495/5/6 501/5/6
f 496/5/6 497/5/6 502/5/6
f 502/5/6 497/5/6 503/5/6
f 498/5/6 468/5/6 504/5/6
f 500/5/6 501/5/6 505/5/6
f 503/5/6 504/5/6 505/5/6
f 502/5/6 503/5/6 505/5/6
f 465/5/6 499/5/6 505/5/6
f 501/5/6 502/5/6 505/5/6
f 499/5/6 500/5/6 505/5/6
f 505/5/6 504/5/6 506/5/6
f 506/5/6 504/5/6 507/5/6
f 507/5/6 504/5/6 508/5/6
f 508/5/6 504/5/6 509/5/6
f 504/5/6 468/5/6 510/5/6
f 509/5/6 504/5/6 510/5/6
f 465/5/6 505/5/6 511/5/6
f 506/5/6 507/5/6 512/5/6
f 512/5/6 507/5/6 513/5/6
f 508/5/6 509/5/6 514/5/6
f 514/5/6 509/5/6 515/5/6
f 510/5/6 468/5/6 516/5/6
f 512/5/6 513/5/6 517/5/6
f 515/5/6 516/5/6 517/5/6
f 514/5/6 515/5/6 517/5/6
f 465/5/6 511/5/6 517/5/6
f 513/5/6 514/5/6 517/5/6
f 511/5/6 512/5/6 517/5/6
f 516/5/6 468/5/6 518/5/6
f 517/5/6 516/5/6 518/5/6
f 465/5/6 517/5/6 519/5/6
f 517/2/6 518/2/6 519/2/6
f 518/5/6 468/5/6 520/5/6
f 519/2/6 518/2/6 520/2/6
f 465/5/6 519/5/6 521/5/6
f 519/1/6 520/1/6 521/1/6
f 520/5/6 468/5/6 522/5/6
f 521/1/6 520/1/6 522/1/6
f 461/5/6 462/5/6 523/5/6
f 465/5/6 521/5/6 526/5/6
f 521/5/6 522/5/6 526/5/6
f 522/5/6 468/5/6 527/5/6
f 526/5/6 522/5/6 527/5/6
f 527/5/6 468/5/6 528/5/6
f 461/5/6 523/5/6 529/5/6
f 523/3/6 524/3/6 530/3/6
f 529/5/6 523/5/6 530/5/6
f 530/3/6 524/3/6 531/3/6
f 525/3/6 526/3/6 534/3/6
f 526/5/6 527/5/6 535/5/6
f 534/3/6 526/3/6 535/3/6
f 535/5/6 527/5/6 536/5/6
f 532/4/6 533/4/6 537/4/6
f 537/4/6 533/4/6 538/4/6
f 539/3/6 540/3/6 542/3/6
f 542/3/6 540/3/6 543/3/6
f 545/4/6 546/4/6 551/4/6
f 551/4/6 546/4/6 552/4/6
f 547/4/6 548/4/6 553/4/6
f 553/4/6 548/4/6 554/4/6
f 549/4/6 550/4/6 555/4/6
f 555/4/6 550/4/6 556/4/6
f 557/4/6 558/4/6 563/4/6
f 563/4/6 558/4/6 564/4/6
f 559/4/6 560/4/6 565/4/6
f 565/4/6 560/4/6 566/4/6
f 561/4/6 562/4/6 567/4/6
f 567/4/6 562/4/6 568/4/6
f 569/4/6 570/4/6 575/4/6
f 575/4/6 570/4/6 576/4/6
f 571/4/6 572/4/6 577/4/6
f 577/4/6 572/4/6 578/4/6
f 573/4/6 574/4/6 579/4/6
f 579/4/6 574/4/6 580/4/6
f 581/4/6 582/4/6 587/4/6
f 587/4/6 582/4/6 588/4/6
f 583/4/6 584/4/6 589/4/6
f 589/4/6 584/4/6 590/4/6
f 585/4/6 586/4/6 591/4/6
f 591/4/6 586/4/6 592/4/6
f 541/3/6 542/3/6 593/3/6
f 593/3/6 542/3/6 594/3/6
f 543/3/6 544/3/6 595/3/6
f 595/3/6 544/3/6 596/3/6
f 594/3/6 595/3/6 597/3/6
f 597/3/6 595/3/6 598/3/6
f 599/3/6 600/3/6 601/3/6
f 601/3/6 600/3/6 602/3/6
